{
 "cells": [
  {
   "cell_type": "code",
   "execution_count": 14,
   "metadata": {},
   "outputs": [
    {
     "name": "stdout",
     "output_type": "stream",
     "text": [
      "ffmpeg -y -i \"media/highres/FMLP/225/timecoded_cfr.mp4\" -i \"media/highres/KFMLP/225/timecoded_cfr.mp4\" -i \"media/highres/NIK/225/timecoded_cfr.mp4\" -i \"media/highres/TDIP/225/timecoded_cfr.mp4\" -i \"media/highres/BH/225/timecoded_cfr.mp4\" -filter_complex \"[0:v]pad=iw*5:ih[int0];[1:v][0:v]scale2ref[scaled1],nullsink;[int0][scaled1]overlay=1*W/5:0[int1];[2:v][0:v]scale2ref[scaled2],nullsink;[int1][scaled2]overlay=2*W/5:0[int2];[3:v][0:v]scale2ref[scaled3],nullsink;[int2][scaled3]overlay=3*W/5:0[int3];[4:v][0:v]scale2ref[scaled4],nullsink;[int3][scaled4]overlay=4*W/5:0[int4];[int4]pad=iw:ih+30[text0];[text0]drawtext=fontfile=arial.ttf:text='FMLP':fontcolor=white:fontsize=15:x=(120.0-text_w/2):y=(240+15-text_h/2)[text1];[text1]drawtext=fontfile=arial.ttf:text='KFMLP':fontcolor=white:fontsize=15:x=(360.0-text_w/2):y=(240+15-text_h/2)[text2];[text2]drawtext=fontfile=arial.ttf:text='NIK':fontcolor=white:fontsize=15:x=(600.0-text_w/2):y=(240+15-text_h/2)[text3];[text3]drawtext=fontfile=arial.ttf:text='t-DIP':fontcolor=white:fontsize=15:x=(840.0-text_w/2):y=(240+15-text_h/2)[text4];[text4]drawtext=fontfile=arial.ttf:text='BH reference':fontcolor=white:fontsize=15:x=(1080.0-text_w/2):y=(240+15-text_h/2)[text5]\" -map '[text5]' timecoded_cfr.mp4\n"
     ]
    },
    {
     "name": "stderr",
     "output_type": "stream",
     "text": [
      "ffmpeg version 3.4.11-0ubuntu0.1 Copyright (c) 2000-2022 the FFmpeg developers\n",
      "  built with gcc 7 (Ubuntu 7.5.0-3ubuntu1~18.04)\n",
      "  configuration: --prefix=/usr --extra-version=0ubuntu0.1 --toolchain=hardened --libdir=/usr/lib/x86_64-linux-gnu --incdir=/usr/include/x86_64-linux-gnu --enable-gpl --disable-stripping --enable-avresample --enable-avisynth --enable-gnutls --enable-ladspa --enable-libass --enable-libbluray --enable-libbs2b --enable-libcaca --enable-libcdio --enable-libflite --enable-libfontconfig --enable-libfreetype --enable-libfribidi --enable-libgme --enable-libgsm --enable-libmp3lame --enable-libmysofa --enable-libopenjpeg --enable-libopenmpt --enable-libopus --enable-libpulse --enable-librubberband --enable-librsvg --enable-libshine --enable-libsnappy --enable-libsoxr --enable-libspeex --enable-libssh --enable-libtheora --enable-libtwolame --enable-libvorbis --enable-libvpx --enable-libwavpack --enable-libwebp --enable-libx265 --enable-libxml2 --enable-libxvid --enable-libzmq --enable-libzvbi --enable-omx --enable-openal --enable-opengl --enable-sdl2 --enable-libdc1394 --enable-libdrm --enable-libiec61883 --enable-chromaprint --enable-frei0r --enable-libopencv --enable-libx264 --enable-shared\n",
      "  libavutil      55. 78.100 / 55. 78.100\n",
      "  libavcodec     57.107.100 / 57.107.100\n",
      "  libavformat    57. 83.100 / 57. 83.100\n",
      "  libavdevice    57. 10.100 / 57. 10.100\n",
      "  libavfilter     6.107.100 /  6.107.100\n",
      "  libavresample   3.  7.  0 /  3.  7.  0\n",
      "  libswscale      4.  8.100 /  4.  8.100\n",
      "  libswresample   2.  9.100 /  2.  9.100\n",
      "  libpostproc    54.  7.100 / 54.  7.100\n",
      "Input #0, mov,mp4,m4a,3gp,3g2,mj2, from 'media/highres/FMLP/225/timecoded_cfr.mp4':\n",
      "  Metadata:\n",
      "    major_brand     : isom\n",
      "    minor_version   : 512\n",
      "    compatible_brands: isomiso2avc1mp41\n",
      "    encoder         : Lavf57.83.100\n",
      "  Duration: 00:00:04.83, start: 0.000000, bitrate: 263 kb/s\n",
      "    Stream #0:0(und): Video: h264 (High 4:4:4 Predictive) (avc1 / 0x31637661), yuv444p, 240x240, 261 kb/s, 30 fps, 30 tbr, 15360 tbn, 60 tbc (default)\n",
      "    Metadata:\n",
      "      handler_name    : VideoHandler\n",
      "Input #1, mov,mp4,m4a,3gp,3g2,mj2, from 'media/highres/KFMLP/225/timecoded_cfr.mp4':\n",
      "  Metadata:\n",
      "    major_brand     : isom\n",
      "    minor_version   : 512\n",
      "    compatible_brands: isomiso2avc1mp41\n",
      "    encoder         : Lavf57.83.100\n",
      "  Duration: 00:00:04.83, start: 0.000000, bitrate: 789 kb/s\n",
      "    Stream #1:0(und): Video: h264 (High 4:4:4 Predictive) (avc1 / 0x31637661), yuv444p, 240x240, 787 kb/s, 30 fps, 30 tbr, 15360 tbn, 60 tbc (default)\n",
      "    Metadata:\n",
      "      handler_name    : VideoHandler\n",
      "Input #2, mov,mp4,m4a,3gp,3g2,mj2, from 'media/highres/NIK/225/timecoded_cfr.mp4':\n",
      "  Metadata:\n",
      "    major_brand     : isom\n",
      "    minor_version   : 512\n",
      "    compatible_brands: isomiso2avc1mp41\n",
      "    encoder         : Lavf57.83.100\n",
      "  Duration: 00:00:04.83, start: 0.000000, bitrate: 208 kb/s\n",
      "    Stream #2:0(und): Video: h264 (High 4:4:4 Predictive) (avc1 / 0x31637661), yuv444p, 240x240, 206 kb/s, 30 fps, 30 tbr, 15360 tbn, 60 tbc (default)\n",
      "    Metadata:\n",
      "      handler_name    : VideoHandler\n",
      "Input #3, mov,mp4,m4a,3gp,3g2,mj2, from 'media/highres/TDIP/225/timecoded_cfr.mp4':\n",
      "  Metadata:\n",
      "    major_brand     : isom\n",
      "    minor_version   : 512\n",
      "    compatible_brands: isomiso2avc1mp41\n",
      "    encoder         : Lavf57.83.100\n",
      "  Duration: 00:00:04.83, start: 0.000000, bitrate: 256 kb/s\n",
      "    Stream #3:0(und): Video: h264 (High 4:4:4 Predictive) (avc1 / 0x31637661), yuv444p, 240x240, 253 kb/s, 30 fps, 30 tbr, 15360 tbn, 60 tbc (default)\n",
      "    Metadata:\n",
      "      handler_name    : VideoHandler\n",
      "Input #4, mov,mp4,m4a,3gp,3g2,mj2, from 'media/highres/BH/225/timecoded_cfr.mp4':\n",
      "  Metadata:\n",
      "    major_brand     : isom\n",
      "    minor_version   : 512\n",
      "    compatible_brands: isomiso2avc1mp41\n",
      "    encoder         : Lavf57.83.100\n",
      "  Duration: 00:00:04.83, start: 0.000000, bitrate: 325 kb/s\n",
      "    Stream #4:0(und): Video: h264 (High 4:4:4 Predictive) (avc1 / 0x31637661), yuv444p, 320x320, 321 kb/s, 30 fps, 30 tbr, 15360 tbn, 60 tbc (default)\n",
      "    Metadata:\n",
      "      handler_name    : VideoHandler\n",
      "[Parsed_drawtext_14 @ 0x563f9d1f2200] Using \"/usr/share/fonts/truetype/dejavu/DejaVuSans.ttf\"\n",
      "[Parsed_drawtext_15 @ 0x563f9d1ec780] Using \"/usr/share/fonts/truetype/dejavu/DejaVuSans.ttf\"\n",
      "[Parsed_drawtext_16 @ 0x563f9d2b74c0] Using \"/usr/share/fonts/truetype/dejavu/DejaVuSans.ttf\"\n",
      "[Parsed_drawtext_17 @ 0x563f9d275bc0] Using \"/usr/share/fonts/truetype/dejavu/DejaVuSans.ttf\"\n",
      "[Parsed_drawtext_18 @ 0x563f9d2b7380] Using \"/usr/share/fonts/truetype/dejavu/DejaVuSans.ttf\"\n",
      "Stream mapping:\n",
      "  Stream #0:0 (h264) -> pad\n",
      "  Stream #0:0 (h264) -> scale2ref:ref\n",
      "  Stream #0:0 (h264) -> scale2ref:ref\n",
      "  Stream #0:0 (h264) -> scale2ref:ref\n",
      "  Stream #0:0 (h264) -> scale2ref:ref\n",
      "  Stream #1:0 (h264) -> scale2ref:default\n",
      "  Stream #2:0 (h264) -> scale2ref:default\n",
      "  Stream #3:0 (h264) -> scale2ref:default\n",
      "  Stream #4:0 (h264) -> scale2ref:default\n",
      "  drawtext -> Stream #0:0 (libx264)\n",
      "Press [q] to stop, [?] for help\n",
      "[Parsed_drawtext_14 @ 0x563f9deb48e0] Using \"/usr/share/fonts/truetype/dejavu/DejaVuSans.ttf\"\n",
      "[Parsed_drawtext_15 @ 0x563f9deb9c60] Using \"/usr/share/fonts/truetype/dejavu/DejaVuSans.ttf\"\n",
      "[Parsed_drawtext_16 @ 0x563f9d289860] Using \"/usr/share/fonts/truetype/dejavu/DejaVuSans.ttf\"\n",
      "[Parsed_drawtext_17 @ 0x563f9dec3360] Using \"/usr/share/fonts/truetype/dejavu/DejaVuSans.ttf\"\n",
      "[Parsed_drawtext_18 @ 0x563f9dece380] Using \"/usr/share/fonts/truetype/dejavu/DejaVuSans.ttf\"\n",
      "[libx264 @ 0x563f9d2c40a0] using cpu capabilities: MMX2 SSE2Fast SSSE3 SSE4.2 AVX FMA3 BMI2 AVX2 AVX512\n",
      "[libx264 @ 0x563f9d2c40a0] profile High, level 3.0\n",
      "[libx264 @ 0x563f9d2c40a0] 264 - core 152 r2854 e9a5903 - H.264/MPEG-4 AVC codec - Copyleft 2003-2017 - http://www.videolan.org/x264.html - options: cabac=1 ref=3 deblock=1:0:0 analyse=0x3:0x113 me=hex subme=7 psy=1 psy_rd=1.00:0.00 mixed_ref=1 me_range=16 chroma_me=1 trellis=1 8x8dct=1 cqm=0 deadzone=21,11 fast_pskip=1 chroma_qp_offset=-2 threads=8 lookahead_threads=1 sliced_threads=0 nr=0 decimate=1 interlaced=0 bluray_compat=0 constrained_intra=0 bframes=3 b_pyramid=2 b_adapt=1 b_bias=0 direct=1 weightb=1 open_gop=0 weightp=2 keyint=250 keyint_min=25 scenecut=40 intra_refresh=0 rc_lookahead=40 rc=crf mbtree=1 crf=23.0 qcomp=0.60 qpmin=0 qpmax=69 qpstep=4 ip_ratio=1.40 aq=1:1.00\n",
      "Output #0, mp4, to 'timecoded_cfr.mp4':\n",
      "  Metadata:\n",
      "    major_brand     : isom\n",
      "    minor_version   : 512\n",
      "    compatible_brands: isomiso2avc1mp41\n",
      "    encoder         : Lavf57.83.100\n",
      "    Stream #0:0: Video: h264 (libx264) (avc1 / 0x31637661), yuv420p, 1200x270, q=-1--1, 30 fps, 15360 tbn, 30 tbc (default)\n",
      "    Metadata:\n",
      "      encoder         : Lavc57.107.100 libx264\n",
      "    Side data:\n",
      "      cpb: bitrate max/min/avg: 0/0/0 buffer size: 0 vbv_delay: -1\n",
      "frame=  145 fps=0.0 q=-1.0 Lsize=     909kB time=00:00:04.73 bitrate=1573.2kbits/s speed= 5.3x    \n",
      "video:908kB audio:0kB subtitle:0kB other streams:0kB global headers:0kB muxing overhead: 0.160112%\n",
      "[libx264 @ 0x563f9d2c40a0] frame I:1     Avg QP:22.92  size: 39658\n",
      "[libx264 @ 0x563f9d2c40a0] frame P:140   Avg QP:23.90  size:  6285\n",
      "[libx264 @ 0x563f9d2c40a0] frame B:4     Avg QP:29.18  size:  2288\n",
      "[libx264 @ 0x563f9d2c40a0] consecutive B-frames: 95.9%  1.4%  0.0%  2.8%\n",
      "[libx264 @ 0x563f9d2c40a0] mb I  I16..4: 18.6% 20.6% 60.8%\n",
      "[libx264 @ 0x563f9d2c40a0] mb P  I16..4:  0.2%  0.2%  0.2%  P16..4: 26.4%  8.7%  6.3%  0.0%  0.0%    skip:57.9%\n",
      "[libx264 @ 0x563f9d2c40a0] mb B  I16..4:  0.1%  0.0%  0.0%  B16..8: 19.7%  2.7%  1.0%  direct: 4.5%  skip:71.9%  L0:40.2% L1:47.4% BI:12.4%\n",
      "[libx264 @ 0x563f9d2c40a0] 8x8 transform intra:26.1% inter:25.2%\n",
      "[libx264 @ 0x563f9d2c40a0] coded y,uvDC,uvAC intra: 61.8% 0.0% 0.0% inter: 21.7% 0.0% 0.0%\n",
      "[libx264 @ 0x563f9d2c40a0] i16 v,h,dc,p: 41% 31% 21%  7%\n",
      "[libx264 @ 0x563f9d2c40a0] i8 v,h,dc,ddl,ddr,vr,hd,vl,hu: 29%  8% 32%  6%  6%  5%  4%  6%  5%\n",
      "[libx264 @ 0x563f9d2c40a0] i4 v,h,dc,ddl,ddr,vr,hd,vl,hu: 22% 11% 15%  7% 10% 12%  8%  9%  7%\n",
      "[libx264 @ 0x563f9d2c40a0] i8c dc,h,v,p: 100%  0%  0%  0%\n",
      "[libx264 @ 0x563f9d2c40a0] Weighted P-Frames: Y:0.0% UV:0.0%\n",
      "[libx264 @ 0x563f9d2c40a0] ref P L0: 72.5% 25.4%  1.5%  0.6%\n",
      "[libx264 @ 0x563f9d2c40a0] ref B L0: 92.3%  6.8%  0.9%\n",
      "[libx264 @ 0x563f9d2c40a0] ref B L1: 97.6%  2.4%\n",
      "[libx264 @ 0x563f9d2c40a0] kb/s:1537.09\n"
     ]
    },
    {
     "data": {
      "text/plain": [
       "0"
      ]
     },
     "execution_count": 14,
     "metadata": {},
     "output_type": "execute_result"
    }
   ],
   "source": [
    "# arrange videos side-by-side and add text\n",
    "import os\n",
    "\n",
    "# videos = [\n",
    "#     \"media/lowres_highsnr/FMLP/225/timecoded_cfr.mp4\",\n",
    "#     \"media/lowres_highsnr/FMLP/450/timecoded_cfr.mp4\",\n",
    "#     \"media/lowres_highsnr/FMLP/900/timecoded_cfr.mp4\",\n",
    "#     \"media/lowres_highsnr/BH/900/timecoded_cfr.mp4\"\n",
    "# ]\n",
    "# titles = [\"T=225\", \"T=450\", \"T=900\", \"BH reference\"]\n",
    "# w, h = 134, 134\n",
    "\n",
    "# videos = [\n",
    "#     \"media/lowres_highsnr/FMLP/225/timecoded_cfr.mp4\",\n",
    "#     \"media/lowres_highsnr/KFMLP/225/timecoded_cfr.mp4\",\n",
    "#     \"media/lowres_highsnr/NIK/225/timecoded_cfr.mp4\",\n",
    "#     \"media/lowres_highsnr/TDIP/225/timecoded_cfr.mp4\",\n",
    "#     \"media/lowres_highsnr/BH/225/timecoded_cfr.mp4\"\n",
    "# ]\n",
    "# titles = [\"FMLP\", \"KFMLP\", \"NIK\", \"t-DIP\", \"BH reference\"]\n",
    "# w, h = 134, 134\n",
    "\n",
    "# videos = [\n",
    "#     \"media/lowres_lowsnr/FMLP/225/timecoded_cfr.mp4\",\n",
    "#     \"media/lowres_lowsnr/KFMLP/225/timecoded_cfr.mp4\",\n",
    "#     \"media/lowres_lowsnr/NIK/225/timecoded_cfr.mp4\",\n",
    "#     \"media/lowres_lowsnr/TDIP/225/timecoded_cfr.mp4\",\n",
    "#     \"media/lowres_lowsnr/BH/225/timecoded_cfr.mp4\"\n",
    "# ]\n",
    "# titles = [\"FMLP\", \"KFMLP\", \"NIK\", \"t-DIP\", \"BH reference\"]\n",
    "# w, h = 134, 134\n",
    "\n",
    "\n",
    "videos = [\n",
    "    \"media/highres/FMLP/225/timecoded_cfr.mp4\",\n",
    "    \"media/highres/KFMLP/225/timecoded_cfr.mp4\",\n",
    "    \"media/highres/NIK/225/timecoded_cfr.mp4\",\n",
    "    \"media/highres/TDIP/225/timecoded_cfr.mp4\",\n",
    "    \"media/highres/BH/225/timecoded_cfr.mp4\"\n",
    "]\n",
    "titles = [\"FMLP\", \"KFMLP\", \"NIK\", \"t-DIP\", \"BH reference\"]\n",
    "w, h = 240, 240\n",
    "\n",
    "\n",
    "N = len(videos)\n",
    "command = \"ffmpeg -y \" + \" \".join([\"-i \\\"{}\\\"\".format(v) for v in videos]) + \" -filter_complex \\\"[0:v]pad=iw*{}:ih[int0]\".format(N) # pad the first video\n",
    "for i in range(1, N):\n",
    "    command += \";[{}:v][0:v]scale2ref[scaled{}],nullsink;[int{}][scaled{}]overlay={}*W/{}:0[int{}]\".format(i,i,i-1, i, i, N, i) # scale video to same dimensions as the first video and overlay it\n",
    "command += \";[int{}]pad=iw:ih+30[text0]\".format(N-1)\n",
    "\n",
    "for i in range(N):\n",
    "    command += \";[text{}]drawtext=fontfile=arial.ttf:text='{}':fontcolor=white:fontsize=15:x=({}-text_w/2):y=({}+15-text_h/2)[text{}]\".format(i, titles[i], w/2 + w * i, h, i+1)\n",
    "command += \"\\\" -map '[text{}]' timecoded_cfr.mp4\".format(N)\n",
    "\n",
    "print(command)\n",
    "\n",
    "os.system(command)"
   ]
  },
  {
   "cell_type": "code",
   "execution_count": 15,
   "metadata": {},
   "outputs": [
    {
     "name": "stderr",
     "output_type": "stream",
     "text": [
      "ffmpeg version 3.4.11-0ubuntu0.1 Copyright (c) 2000-2022 the FFmpeg developers\n",
      "  built with gcc 7 (Ubuntu 7.5.0-3ubuntu1~18.04)\n",
      "  configuration: --prefix=/usr --extra-version=0ubuntu0.1 --toolchain=hardened --libdir=/usr/lib/x86_64-linux-gnu --incdir=/usr/include/x86_64-linux-gnu --enable-gpl --disable-stripping --enable-avresample --enable-avisynth --enable-gnutls --enable-ladspa --enable-libass --enable-libbluray --enable-libbs2b --enable-libcaca --enable-libcdio --enable-libflite --enable-libfontconfig --enable-libfreetype --enable-libfribidi --enable-libgme --enable-libgsm --enable-libmp3lame --enable-libmysofa --enable-libopenjpeg --enable-libopenmpt --enable-libopus --enable-libpulse --enable-librubberband --enable-librsvg --enable-libshine --enable-libsnappy --enable-libsoxr --enable-libspeex --enable-libssh --enable-libtheora --enable-libtwolame --enable-libvorbis --enable-libvpx --enable-libwavpack --enable-libwebp --enable-libx265 --enable-libxml2 --enable-libxvid --enable-libzmq --enable-libzvbi --enable-omx --enable-openal --enable-opengl --enable-sdl2 --enable-libdc1394 --enable-libdrm --enable-libiec61883 --enable-chromaprint --enable-frei0r --enable-libopencv --enable-libx264 --enable-shared\n",
      "  libavutil      55. 78.100 / 55. 78.100\n",
      "  libavcodec     57.107.100 / 57.107.100\n",
      "  libavformat    57. 83.100 / 57. 83.100\n",
      "  libavdevice    57. 10.100 / 57. 10.100\n",
      "  libavfilter     6.107.100 /  6.107.100\n",
      "  libavresample   3.  7.  0 /  3.  7.  0\n",
      "  libswscale      4.  8.100 /  4.  8.100\n",
      "  libswresample   2.  9.100 /  2.  9.100\n",
      "  libpostproc    54.  7.100 / 54.  7.100\n",
      "Input #0, mov,mp4,m4a,3gp,3g2,mj2, from 'media/highres/all_methods_225/timecoded_cfr.mp4':\n",
      "  Metadata:\n",
      "    major_brand     : isom\n",
      "    minor_version   : 512\n",
      "    compatible_brands: isomiso2avc1mp41\n",
      "    encoder         : Lavf57.83.100\n",
      "  Duration: 00:00:04.83, start: 0.000000, bitrate: 1540 kb/s\n",
      "    Stream #0:0(und): Video: h264 (High) (avc1 / 0x31637661), yuv420p, 1200x270, 1538 kb/s, 30 fps, 30 tbr, 15360 tbn, 60 tbc (default)\n",
      "    Metadata:\n",
      "      handler_name    : VideoHandler\n",
      "Stream mapping:\n",
      "  Stream #0:0 -> #0:0 (h264 (native) -> png (native))\n",
      "Press [q] to stop, [?] for help\n",
      "Output #0, image2, to '/tmp/palette.png':\n",
      "  Metadata:\n",
      "    major_brand     : isom\n",
      "    minor_version   : 512\n",
      "    compatible_brands: isomiso2avc1mp41\n",
      "    encoder         : Lavf57.83.100\n",
      "    Stream #0:0(und): Video: png, rgba, 16x16 [SAR 1:1 DAR 1:1], q=2-31, 200 kb/s, 30 fps, 30 tbn, 30 tbc (default)\n",
      "    Metadata:\n",
      "      handler_name    : VideoHandler\n",
      "      encoder         : Lavc57.107.100 png\n",
      "[Parsed_palettegen_0 @ 0x55e05840f000] 220(+1) colors generated out of 220 colors; ratio=1.000000\n",
      "frame=    1 fps=0.0 q=-0.0 Lsize=N/A time=00:00:00.03 bitrate=N/A speed=0.0546x    \n",
      "video:1kB audio:0kB subtitle:0kB other streams:0kB global headers:0kB muxing overhead: unknown\n",
      "ffmpeg version 3.4.11-0ubuntu0.1 Copyright (c) 2000-2022 the FFmpeg developers\n",
      "  built with gcc 7 (Ubuntu 7.5.0-3ubuntu1~18.04)\n",
      "  configuration: --prefix=/usr --extra-version=0ubuntu0.1 --toolchain=hardened --libdir=/usr/lib/x86_64-linux-gnu --incdir=/usr/include/x86_64-linux-gnu --enable-gpl --disable-stripping --enable-avresample --enable-avisynth --enable-gnutls --enable-ladspa --enable-libass --enable-libbluray --enable-libbs2b --enable-libcaca --enable-libcdio --enable-libflite --enable-libfontconfig --enable-libfreetype --enable-libfribidi --enable-libgme --enable-libgsm --enable-libmp3lame --enable-libmysofa --enable-libopenjpeg --enable-libopenmpt --enable-libopus --enable-libpulse --enable-librubberband --enable-librsvg --enable-libshine --enable-libsnappy --enable-libsoxr --enable-libspeex --enable-libssh --enable-libtheora --enable-libtwolame --enable-libvorbis --enable-libvpx --enable-libwavpack --enable-libwebp --enable-libx265 --enable-libxml2 --enable-libxvid --enable-libzmq --enable-libzvbi --enable-omx --enable-openal --enable-opengl --enable-sdl2 --enable-libdc1394 --enable-libdrm --enable-libiec61883 --enable-chromaprint --enable-frei0r --enable-libopencv --enable-libx264 --enable-shared\n",
      "  libavutil      55. 78.100 / 55. 78.100\n",
      "  libavcodec     57.107.100 / 57.107.100\n",
      "  libavformat    57. 83.100 / 57. 83.100\n",
      "  libavdevice    57. 10.100 / 57. 10.100\n",
      "  libavfilter     6.107.100 /  6.107.100\n",
      "  libavresample   3.  7.  0 /  3.  7.  0\n",
      "  libswscale      4.  8.100 /  4.  8.100\n",
      "  libswresample   2.  9.100 /  2.  9.100\n",
      "  libpostproc    54.  7.100 / 54.  7.100\n",
      "Input #0, mov,mp4,m4a,3gp,3g2,mj2, from 'media/highres/all_methods_225/timecoded_cfr.mp4':\n",
      "  Metadata:\n",
      "    major_brand     : isom\n",
      "    minor_version   : 512\n",
      "    compatible_brands: isomiso2avc1mp41\n",
      "    encoder         : Lavf57.83.100\n",
      "  Duration: 00:00:04.83, start: 0.000000, bitrate: 1540 kb/s\n",
      "    Stream #0:0(und): Video: h264 (High) (avc1 / 0x31637661), yuv420p, 1200x270, 1538 kb/s, 30 fps, 30 tbr, 15360 tbn, 60 tbc (default)\n",
      "    Metadata:\n",
      "      handler_name    : VideoHandler\n",
      "Input #1, png_pipe, from '/tmp/palette.png':\n",
      "  Duration: N/A, bitrate: N/A\n",
      "    Stream #1:0: Video: png, rgba(pc), 16x16 [SAR 1:1 DAR 1:1], 25 tbr, 25 tbn, 25 tbc\n",
      "Stream mapping:\n",
      "  Stream #0:0 (h264) -> paletteuse:default\n",
      "  Stream #1:0 (png) -> paletteuse:palette\n",
      "  paletteuse -> Stream #0:0 (gif)\n",
      "Press [q] to stop, [?] for help\n",
      "Output #0, gif, to 'media/highres/all_methods_225/timecoded_cfr.gif':\n",
      "  Metadata:\n",
      "    major_brand     : isom\n",
      "    minor_version   : 512\n",
      "    compatible_brands: isomiso2avc1mp41\n",
      "    encoder         : Lavf57.83.100\n",
      "    Stream #0:0: Video: gif, pal8, 1200x270, q=2-31, 200 kb/s, 30 fps, 100 tbn, 30 tbc (default)\n",
      "    Metadata:\n",
      "      encoder         : Lavc57.107.100 gif\n",
      "frame=  145 fps= 88 q=-0.0 Lsize=   15455kB time=00:00:04.81 bitrate=26322.5kbits/s speed=2.91x    \n",
      "video:15454kB audio:0kB subtitle:0kB other streams:0kB global headers:0kB muxing overhead: 0.012392%\n",
      "ffmpeg version 3.4.11-0ubuntu0.1 Copyright (c) 2000-2022 the FFmpeg developers\n",
      "  built with gcc 7 (Ubuntu 7.5.0-3ubuntu1~18.04)\n",
      "  configuration: --prefix=/usr --extra-version=0ubuntu0.1 --toolchain=hardened --libdir=/usr/lib/x86_64-linux-gnu --incdir=/usr/include/x86_64-linux-gnu --enable-gpl --disable-stripping --enable-avresample --enable-avisynth --enable-gnutls --enable-ladspa --enable-libass --enable-libbluray --enable-libbs2b --enable-libcaca --enable-libcdio --enable-libflite --enable-libfontconfig --enable-libfreetype --enable-libfribidi --enable-libgme --enable-libgsm --enable-libmp3lame --enable-libmysofa --enable-libopenjpeg --enable-libopenmpt --enable-libopus --enable-libpulse --enable-librubberband --enable-librsvg --enable-libshine --enable-libsnappy --enable-libsoxr --enable-libspeex --enable-libssh --enable-libtheora --enable-libtwolame --enable-libvorbis --enable-libvpx --enable-libwavpack --enable-libwebp --enable-libx265 --enable-libxml2 --enable-libxvid --enable-libzmq --enable-libzvbi --enable-omx --enable-openal --enable-opengl --enable-sdl2 --enable-libdc1394 --enable-libdrm --enable-libiec61883 --enable-chromaprint --enable-frei0r --enable-libopencv --enable-libx264 --enable-shared\n",
      "  libavutil      55. 78.100 / 55. 78.100\n",
      "  libavcodec     57.107.100 / 57.107.100\n",
      "  libavformat    57. 83.100 / 57. 83.100\n",
      "  libavdevice    57. 10.100 / 57. 10.100\n",
      "  libavfilter     6.107.100 /  6.107.100\n",
      "  libavresample   3.  7.  0 /  3.  7.  0\n",
      "  libswscale      4.  8.100 /  4.  8.100\n",
      "  libswresample   2.  9.100 /  2.  9.100\n",
      "  libpostproc    54.  7.100 / 54.  7.100\n",
      "Input #0, mov,mp4,m4a,3gp,3g2,mj2, from 'media/lowres_highsnr/all_methods_225/timecoded_cfr.mp4':\n",
      "  Metadata:\n",
      "    major_brand     : isom\n",
      "    minor_version   : 512\n",
      "    compatible_brands: isomiso2avc1mp41\n",
      "    encoder         : Lavf57.83.100\n",
      "  Duration: 00:00:04.03, start: 0.000000, bitrate: 312 kb/s\n",
      "    Stream #0:0(und): Video: h264 (High) (avc1 / 0x31637661), yuv420p, 670x164, 309 kb/s, 30 fps, 30 tbr, 15360 tbn, 60 tbc (default)\n",
      "    Metadata:\n",
      "      handler_name    : VideoHandler\n",
      "Stream mapping:\n",
      "  Stream #0:0 -> #0:0 (h264 (native) -> png (native))\n",
      "Press [q] to stop, [?] for help\n",
      "Output #0, image2, to '/tmp/palette.png':\n",
      "  Metadata:\n",
      "    major_brand     : isom\n",
      "    minor_version   : 512\n",
      "    compatible_brands: isomiso2avc1mp41\n",
      "    encoder         : Lavf57.83.100\n",
      "    Stream #0:0(und): Video: png, rgba, 16x16 [SAR 1:1 DAR 1:1], q=2-31, 200 kb/s, 30 fps, 30 tbn, 30 tbc (default)\n",
      "    Metadata:\n",
      "      handler_name    : VideoHandler\n",
      "      encoder         : Lavc57.107.100 png\n",
      "[Parsed_palettegen_0 @ 0x563c57ee50c0] 220(+1) colors generated out of 220 colors; ratio=1.000000\n",
      "frame=    1 fps=0.0 q=-0.0 Lsize=N/A time=00:00:00.03 bitrate=N/A speed=0.189x    \n",
      "video:1kB audio:0kB subtitle:0kB other streams:0kB global headers:0kB muxing overhead: unknown\n",
      "ffmpeg version 3.4.11-0ubuntu0.1 Copyright (c) 2000-2022 the FFmpeg developers\n",
      "  built with gcc 7 (Ubuntu 7.5.0-3ubuntu1~18.04)\n",
      "  configuration: --prefix=/usr --extra-version=0ubuntu0.1 --toolchain=hardened --libdir=/usr/lib/x86_64-linux-gnu --incdir=/usr/include/x86_64-linux-gnu --enable-gpl --disable-stripping --enable-avresample --enable-avisynth --enable-gnutls --enable-ladspa --enable-libass --enable-libbluray --enable-libbs2b --enable-libcaca --enable-libcdio --enable-libflite --enable-libfontconfig --enable-libfreetype --enable-libfribidi --enable-libgme --enable-libgsm --enable-libmp3lame --enable-libmysofa --enable-libopenjpeg --enable-libopenmpt --enable-libopus --enable-libpulse --enable-librubberband --enable-librsvg --enable-libshine --enable-libsnappy --enable-libsoxr --enable-libspeex --enable-libssh --enable-libtheora --enable-libtwolame --enable-libvorbis --enable-libvpx --enable-libwavpack --enable-libwebp --enable-libx265 --enable-libxml2 --enable-libxvid --enable-libzmq --enable-libzvbi --enable-omx --enable-openal --enable-opengl --enable-sdl2 --enable-libdc1394 --enable-libdrm --enable-libiec61883 --enable-chromaprint --enable-frei0r --enable-libopencv --enable-libx264 --enable-shared\n",
      "  libavutil      55. 78.100 / 55. 78.100\n",
      "  libavcodec     57.107.100 / 57.107.100\n",
      "  libavformat    57. 83.100 / 57. 83.100\n",
      "  libavdevice    57. 10.100 / 57. 10.100\n",
      "  libavfilter     6.107.100 /  6.107.100\n",
      "  libavresample   3.  7.  0 /  3.  7.  0\n",
      "  libswscale      4.  8.100 /  4.  8.100\n",
      "  libswresample   2.  9.100 /  2.  9.100\n",
      "  libpostproc    54.  7.100 / 54.  7.100\n",
      "Input #0, mov,mp4,m4a,3gp,3g2,mj2, from 'media/lowres_highsnr/all_methods_225/timecoded_cfr.mp4':\n",
      "  Metadata:\n",
      "    major_brand     : isom\n",
      "    minor_version   : 512\n",
      "    compatible_brands: isomiso2avc1mp41\n",
      "    encoder         : Lavf57.83.100\n",
      "  Duration: 00:00:04.03, start: 0.000000, bitrate: 312 kb/s\n",
      "    Stream #0:0(und): Video: h264 (High) (avc1 / 0x31637661), yuv420p, 670x164, 309 kb/s, 30 fps, 30 tbr, 15360 tbn, 60 tbc (default)\n",
      "    Metadata:\n",
      "      handler_name    : VideoHandler\n",
      "Input #1, png_pipe, from '/tmp/palette.png':\n",
      "  Duration: N/A, bitrate: N/A\n",
      "    Stream #1:0: Video: png, rgba(pc), 16x16 [SAR 1:1 DAR 1:1], 25 tbr, 25 tbn, 25 tbc\n",
      "Stream mapping:\n",
      "  Stream #0:0 (h264) -> paletteuse:default\n",
      "  Stream #1:0 (png) -> paletteuse:palette\n",
      "  paletteuse -> Stream #0:0 (gif)\n",
      "Press [q] to stop, [?] for help\n",
      "Output #0, gif, to 'media/lowres_highsnr/all_methods_225/timecoded_cfr.gif':\n",
      "  Metadata:\n",
      "    major_brand     : isom\n",
      "    minor_version   : 512\n",
      "    compatible_brands: isomiso2avc1mp41\n",
      "    encoder         : Lavf57.83.100\n",
      "    Stream #0:0: Video: gif, pal8, 670x164, q=2-31, 200 kb/s, 30 fps, 100 tbn, 30 tbc (default)\n",
      "    Metadata:\n",
      "      encoder         : Lavc57.107.100 gif\n",
      "frame=  121 fps=0.0 q=-0.0 Lsize=    2765kB time=00:00:04.01 bitrate=5649.4kbits/s speed=8.16x    \n",
      "video:2764kB audio:0kB subtitle:0kB other streams:0kB global headers:0kB muxing overhead: 0.062509%\n",
      "ffmpeg version 3.4.11-0ubuntu0.1 Copyright (c) 2000-2022 the FFmpeg developers\n",
      "  built with gcc 7 (Ubuntu 7.5.0-3ubuntu1~18.04)\n",
      "  configuration: --prefix=/usr --extra-version=0ubuntu0.1 --toolchain=hardened --libdir=/usr/lib/x86_64-linux-gnu --incdir=/usr/include/x86_64-linux-gnu --enable-gpl --disable-stripping --enable-avresample --enable-avisynth --enable-gnutls --enable-ladspa --enable-libass --enable-libbluray --enable-libbs2b --enable-libcaca --enable-libcdio --enable-libflite --enable-libfontconfig --enable-libfreetype --enable-libfribidi --enable-libgme --enable-libgsm --enable-libmp3lame --enable-libmysofa --enable-libopenjpeg --enable-libopenmpt --enable-libopus --enable-libpulse --enable-librubberband --enable-librsvg --enable-libshine --enable-libsnappy --enable-libsoxr --enable-libspeex --enable-libssh --enable-libtheora --enable-libtwolame --enable-libvorbis --enable-libvpx --enable-libwavpack --enable-libwebp --enable-libx265 --enable-libxml2 --enable-libxvid --enable-libzmq --enable-libzvbi --enable-omx --enable-openal --enable-opengl --enable-sdl2 --enable-libdc1394 --enable-libdrm --enable-libiec61883 --enable-chromaprint --enable-frei0r --enable-libopencv --enable-libx264 --enable-shared\n",
      "  libavutil      55. 78.100 / 55. 78.100\n",
      "  libavcodec     57.107.100 / 57.107.100\n",
      "  libavformat    57. 83.100 / 57. 83.100\n",
      "  libavdevice    57. 10.100 / 57. 10.100\n",
      "  libavfilter     6.107.100 /  6.107.100\n",
      "  libavresample   3.  7.  0 /  3.  7.  0\n",
      "  libswscale      4.  8.100 /  4.  8.100\n",
      "  libswresample   2.  9.100 /  2.  9.100\n",
      "  libpostproc    54.  7.100 / 54.  7.100\n",
      "Input #0, mov,mp4,m4a,3gp,3g2,mj2, from 'media/lowres_lowsnr/all_methods_225/timecoded_cfr.mp4':\n",
      "  Metadata:\n",
      "    major_brand     : isom\n",
      "    minor_version   : 512\n",
      "    compatible_brands: isomiso2avc1mp41\n",
      "    encoder         : Lavf57.83.100\n",
      "  Duration: 00:00:05.03, start: 0.000000, bitrate: 553 kb/s\n",
      "    Stream #0:0(und): Video: h264 (High) (avc1 / 0x31637661), yuv420p, 670x164, 551 kb/s, 30 fps, 30 tbr, 15360 tbn, 60 tbc (default)\n",
      "    Metadata:\n",
      "      handler_name    : VideoHandler\n",
      "Stream mapping:\n",
      "  Stream #0:0 -> #0:0 (h264 (native) -> png (native))\n",
      "Press [q] to stop, [?] for help\n",
      "Output #0, image2, to '/tmp/palette.png':\n",
      "  Metadata:\n",
      "    major_brand     : isom\n",
      "    minor_version   : 512\n",
      "    compatible_brands: isomiso2avc1mp41\n",
      "    encoder         : Lavf57.83.100\n",
      "    Stream #0:0(und): Video: png, rgba, 16x16 [SAR 1:1 DAR 1:1], q=2-31, 200 kb/s, 30 fps, 30 tbn, 30 tbc (default)\n",
      "    Metadata:\n",
      "      handler_name    : VideoHandler\n",
      "      encoder         : Lavc57.107.100 png\n",
      "[Parsed_palettegen_0 @ 0x55a94c2cc780] 220(+1) colors generated out of 220 colors; ratio=1.000000\n",
      "frame=    1 fps=0.0 q=-0.0 Lsize=N/A time=00:00:00.03 bitrate=N/A speed=0.143x    \n",
      "video:1kB audio:0kB subtitle:0kB other streams:0kB global headers:0kB muxing overhead: unknown\n",
      "ffmpeg version 3.4.11-0ubuntu0.1 Copyright (c) 2000-2022 the FFmpeg developers\n",
      "  built with gcc 7 (Ubuntu 7.5.0-3ubuntu1~18.04)\n",
      "  configuration: --prefix=/usr --extra-version=0ubuntu0.1 --toolchain=hardened --libdir=/usr/lib/x86_64-linux-gnu --incdir=/usr/include/x86_64-linux-gnu --enable-gpl --disable-stripping --enable-avresample --enable-avisynth --enable-gnutls --enable-ladspa --enable-libass --enable-libbluray --enable-libbs2b --enable-libcaca --enable-libcdio --enable-libflite --enable-libfontconfig --enable-libfreetype --enable-libfribidi --enable-libgme --enable-libgsm --enable-libmp3lame --enable-libmysofa --enable-libopenjpeg --enable-libopenmpt --enable-libopus --enable-libpulse --enable-librubberband --enable-librsvg --enable-libshine --enable-libsnappy --enable-libsoxr --enable-libspeex --enable-libssh --enable-libtheora --enable-libtwolame --enable-libvorbis --enable-libvpx --enable-libwavpack --enable-libwebp --enable-libx265 --enable-libxml2 --enable-libxvid --enable-libzmq --enable-libzvbi --enable-omx --enable-openal --enable-opengl --enable-sdl2 --enable-libdc1394 --enable-libdrm --enable-libiec61883 --enable-chromaprint --enable-frei0r --enable-libopencv --enable-libx264 --enable-shared\n",
      "  libavutil      55. 78.100 / 55. 78.100\n",
      "  libavcodec     57.107.100 / 57.107.100\n",
      "  libavformat    57. 83.100 / 57. 83.100\n",
      "  libavdevice    57. 10.100 / 57. 10.100\n",
      "  libavfilter     6.107.100 /  6.107.100\n",
      "  libavresample   3.  7.  0 /  3.  7.  0\n",
      "  libswscale      4.  8.100 /  4.  8.100\n",
      "  libswresample   2.  9.100 /  2.  9.100\n",
      "  libpostproc    54.  7.100 / 54.  7.100\n",
      "Input #0, mov,mp4,m4a,3gp,3g2,mj2, from 'media/lowres_lowsnr/all_methods_225/timecoded_cfr.mp4':\n",
      "  Metadata:\n",
      "    major_brand     : isom\n",
      "    minor_version   : 512\n",
      "    compatible_brands: isomiso2avc1mp41\n",
      "    encoder         : Lavf57.83.100\n",
      "  Duration: 00:00:05.03, start: 0.000000, bitrate: 553 kb/s\n",
      "    Stream #0:0(und): Video: h264 (High) (avc1 / 0x31637661), yuv420p, 670x164, 551 kb/s, 30 fps, 30 tbr, 15360 tbn, 60 tbc (default)\n",
      "    Metadata:\n",
      "      handler_name    : VideoHandler\n",
      "Input #1, png_pipe, from '/tmp/palette.png':\n",
      "  Duration: N/A, bitrate: N/A\n",
      "    Stream #1:0: Video: png, rgba(pc), 16x16 [SAR 1:1 DAR 1:1], 25 tbr, 25 tbn, 25 tbc\n",
      "Stream mapping:\n",
      "  Stream #0:0 (h264) -> paletteuse:default\n",
      "  Stream #1:0 (png) -> paletteuse:palette\n",
      "  paletteuse -> Stream #0:0 (gif)\n",
      "Press [q] to stop, [?] for help\n",
      "Output #0, gif, to 'media/lowres_lowsnr/all_methods_225/timecoded_cfr.gif':\n",
      "  Metadata:\n",
      "    major_brand     : isom\n",
      "    minor_version   : 512\n",
      "    compatible_brands: isomiso2avc1mp41\n",
      "    encoder         : Lavf57.83.100\n",
      "    Stream #0:0: Video: gif, pal8, 670x164, q=2-31, 200 kb/s, 30 fps, 100 tbn, 30 tbc (default)\n",
      "    Metadata:\n",
      "      encoder         : Lavc57.107.100 gif\n",
      "frame=  151 fps=0.0 q=-0.0 Lsize=    4833kB time=00:00:05.01 bitrate=7902.0kbits/s speed=8.25x    \n",
      "video:4831kB audio:0kB subtitle:0kB other streams:0kB global headers:0kB muxing overhead: 0.040614%\n"
     ]
    }
   ],
   "source": [
    "# convert to gif\n",
    "import os\n",
    "import glob\n",
    "\n",
    "videos = glob.glob(\"media/**/all_methods_225/timecoded_cfr.mp4\", recursive=True)\n",
    "for v in videos:\n",
    "    output = os.path.join(os.path.dirname(v), \"timecoded_cfr.gif\")\n",
    "    os.system(\"palette=\\\"/tmp/palette.png\\\"; filters=\\\"\\\"; ffmpeg -i {input} -vf \\\"palettegen\\\" -y $palette; ffmpeg -i \\\"{input}\\\" -i $palette -lavfi \\\"[0:v][1:v] paletteuse\\\" -y \\\"{out}\\\"; \".format(input=v, out=output))"
   ]
  }
 ],
 "metadata": {
  "kernelspec": {
   "display_name": "base",
   "language": "python",
   "name": "python3"
  },
  "language_info": {
   "codemirror_mode": {
    "name": "ipython",
    "version": 3
   },
   "file_extension": ".py",
   "mimetype": "text/x-python",
   "name": "python",
   "nbconvert_exporter": "python",
   "pygments_lexer": "ipython3",
   "version": "3.7.7"
  },
  "orig_nbformat": 4
 },
 "nbformat": 4,
 "nbformat_minor": 2
}
